Motion_pl03
version=1
nRows=13
nColumns=43
inDegrees=yes
endheader
time	pelvis_tilt	pelvis_list	pelvis_rotation	pelvis_tx	pelvis_ty	pelvis_tz	hip_flexion_r	hip_adduction_r	hip_rotation_r	knee_angle_r	ankle_angle_r	subtalar_angle_r	mtp_angle_r	hip_flexion_l	hip_adduction_l	hip_rotation_l	knee_angle_l	ankle_angle_l	subtalar_angle_l	mtp_angle_l	lumbar_extension	lumbar_bending	lumbar_rotation	neck_flexion	neck_lateral_bending	neck_rotation	arm_flex_r	arm_add_r	arm_rot_r	elbow_flex_r	pro_sup_r	wrist_flex_r	wrist_dev_r	hand_finger_flex_r	arm_flex_l	arm_add_l	arm_rot_l	elbow_flex_l	pro_sup_l	wrist_flex_l	wrist_dev_l	hand_finger_flex_l
      0.00250000	      1.07539893	    -13.86855681	     93.36209553	     -0.00348067	      2.03406765	      1.69712369	     34.50544390	     -3.68685368	      1.67972270	    -43.08456401	      5.30505493	      4.37346707	      1.56950224	     33.31538100	     -7.00161197	      0.24113558	    -40.57790218	     13.32651660	      5.00156990	      6.16158922	    -23.04715828	      0.67222936	     -1.39869081	      4.06528301	      5.49992923	     -3.39236179	     33.34192749	    -42.85106685	    -17.86889716	     62.07158435	    128.90524484	     -3.48051712	     14.85105796	    -19.48297522	     14.90250733	    -37.50948543	    -34.34891691	     70.18402028	    120.57757335	     -4.12261320	      5.07872099	      5.54764496
      0.00500000	      1.08063547	    -13.88326003	     93.35728248	     -0.00354339	      2.03400108	      1.69676769	     34.49577101	     -3.68863770	      1.67971821	    -43.09239904	      5.30420453	      4.37348754	      1.56966198	     33.31391087	     -7.00348953	      0.24102815	    -40.57941665	     13.32621217	      5.00151736	      6.16185379	    -23.04384367	      0.67234066	     -1.40052027	      4.06577689	      5.49781385	     -3.39181245	     33.35237270	    -42.85543215	    -17.87002093	     62.07962807	    128.90586157	     -3.48064779	     14.84891592	    -19.48365278	     14.91565295	    -37.51572210	    -34.34784515	     70.19266661	    120.57640778	     -4.12433569	      5.07858112	      5.54823777
      0.00750000	      1.11411042	    -13.89099995	     93.34025287	     -0.00339745	      2.03360099	      1.69797659	     34.68581141	     -3.66218439	      1.63401721	    -43.24418522	      5.21846368	      4.37045250	      1.57578698	     33.42084173	     -7.06409274	      0.21977019	    -40.58146123	     13.33751928	      4.99829527	      6.17350369	    -23.20291149	      0.69751570	     -1.36336419	      4.05244560	      5.42361992	     -3.36475381	     33.68490746	    -42.93327808	    -17.85433703	     62.36029298	    128.92837967	     -3.47484481	     14.75517650	    -19.50742960	     15.30449489	    -37.65692537	    -34.25108864	     70.45214500	    120.54287849	     -4.17250810	      5.08570327	      5.57468725
      0.01000000	      1.11728747	    -13.90568213	     93.33326369	     -0.00349109	      2.03347582	      1.69765422	     34.68210237	     -3.66766160	      1.63527367	    -43.25982415	      5.21587095	      4.37137626	      1.57674148	     33.40642408	     -7.07522962	      0.21787661	    -40.60803582	     13.33814259	      4.99820980	      6.17544720	    -23.17377926	      0.69987314	     -1.37129352	      4.05857884	      5.41198318	     -3.36010177	     33.73678702	    -42.97274924	    -17.86600437	     62.39445098	    128.93245008	     -3.47631841	     14.74449744	    -19.51177879	     15.36293885	    -37.69620535	    -34.24770802	     70.48402248	    120.53906704	     -4.18151491	      5.09040744	      5.57836032
      0.01250000	      1.13520708	    -13.91082675	     93.32535474	     -0.00337613	      2.03309326	      1.69893867	     34.88557628	     -3.66097045	      1.60170529	    -43.43830549	      5.14628027	      4.37236202	      1.58323482	     33.57248372	     -7.10749221	      0.18507931	    -40.67684881	     13.36387971	      4.99919046	      6.18971841	    -23.40996054	      0.71790439	     -1.33451198	      4.05615992	      5.33374015	     -3.31927883	     34.06593267	    -43.08452164	    -17.84489910	     62.64167185	    128.95635015	     -3.46884423	     14.64464453	    -19.53732988	     15.73809461	    -37.85963377	    -34.12939575	     70.68639109	    120.52204279	     -4.22197134	      5.11819909	      5.60646547
      0.01500000	      1.13553577	    -13.92325373	     93.31700767	     -0.00348911	      2.03293941	      1.69860183	     34.88019949	     -3.67154717	      1.60423639	    -43.45556514	      5.14711909	      4.37399212	      1.58432098	     33.55689824	     -7.11547072	      0.18239625	    -40.71649719	     13.36575238	      5.00003936	      6.19214310	    -23.37190905	      0.72310765	     -1.34336086	      4.06750083	      5.31998456	     -3.31168971	     34.12051128	    -43.12141291	    -17.85052975	     62.67680377	    128.96032646	     -3.46868747	     14.63085994	    -19.54184733	     15.80663141	    -37.90303956	    -34.11825982	     70.71963709	    120.52014159	     -4.23017018	      5.12447066	      5.61075559
      0.01750000	      1.14000761	    -13.94186045	     93.31256358	     -0.00352793	      2.03287193	      1.69823706	     34.87563528	     -3.67307226	      1.60308766	    -43.46882119	      5.14544432	      4.37404028	      1.58453502	     33.56065852	     -7.11521975	      0.18097780	    -40.72097382	     13.36664955	      5.00028947	      6.19264460	    -23.38023493	      0.72440861	     -1.34403904	      4.06702485	      5.31719745	     -3.30975009	     34.13702030	    -43.12603072	    -17.84934313	     62.68819475	    128.96110845	     -3.46880322	     14.62628459	    -19.54282935	     15.82720471	    -37.91246138	    -34.11363122	     70.73072903	    120.51989813	     -4.23177276	      5.12441584	      5.61143670
      0.02000000	      1.02684114	    -13.92746303	     93.29461661	     -0.00371040	      2.03217484	      1.70073259	     35.27557255	     -3.83872968	      1.60760827	    -43.87904040	      5.20420130	      4.43827446	      1.62258163	     34.16305747	     -7.02830586	      0.10056540	    -41.63004988	     13.46741961	      5.08373262	      6.27894724	    -23.74853392	      0.70895776	     -1.24379965	      4.56652864	      4.83622309	     -2.98710861	     34.70193829	    -43.57186268	    -17.59903898	     62.94574710	    129.03767857	     -3.23311377	     14.28345837	    -19.63879905	     16.77141972	    -38.37114238	    -33.27892262	     70.66799862	    120.56362443	     -4.30969650	      5.61991462	      5.81133219
      0.02250000	      1.06591792	    -13.97205337	     93.29057489	     -0.00360075	      2.03183558	      1.70131827	     35.41798572	     -3.80342044	      1.57781255	    -43.97035785	      5.16334051	      4.45083170	      1.62863190	     34.20668937	     -7.05724596	      0.10518469	    -41.50502022	     13.46245246	      5.09771790	      6.28843115	    -23.81508501	      0.73463426	     -1.22736812	      4.50985065	      4.81445965	     -2.97733515	     34.89837524	    -43.69588097	    -17.62738832	     63.09063492	    129.04883792	     -3.23097857	     14.22647022	    -19.66414719	     17.03280477	    -38.51095363	    -33.24846734	     70.80940891	    120.55920630	     -4.36340545	      5.65203140	      5.83139266
      0.02500000	      1.06903512	    -13.98816571	     93.28559075	     -0.00364261	      2.03177765	      1.70094277	     35.40869594	     -3.80485154	      1.57703153	    -43.97909020	      5.16339232	      4.45123606	      1.62885112	     34.20263744	     -7.06070904	      0.10570093	    -41.50675334	     13.46221399	      5.09807753	      6.28881631	    -23.80773346	      0.73412365	     -1.23194003	      4.50901573	      4.81337980	     -2.97660775	     34.91238617	    -43.70186218	    -17.62858311	     63.10063587	    129.04923988	     -3.23150706	     14.22306249	    -19.66525463	     17.05020929	    -38.51796573	    -33.24523124	     70.82002662	    120.55909235	     -4.36532780	      5.65185020	      5.83201123
      0.02750000	      1.09457423	    -14.01094611	     93.28442203	     -0.00346210	      2.03137204	      1.70201444	     35.59831272	     -3.78954088	      1.53355700	    -44.13110225	      5.10820159	      4.45979078	      1.63444669	     34.29462871	     -7.09986242	      0.09006470	    -41.47302186	     13.47606647	      5.10866179	      6.29988656	    -23.93765045	      0.74341895	     -1.21821511	      4.45238223	      4.78594038	     -2.94644863	     35.23587900	    -43.75265981	    -17.59668818	     63.34661706	    129.05652945	     -3.23249623	     14.11724043	    -19.69120883	     17.45486244	    -38.65624246	    -33.12851901	     71.05479839	    120.56541640	     -4.40603057	      5.65323908	      5.84748205
      0.03000000	      1.09609744	    -14.02985778	     93.28050625	     -0.00352498	      2.03130231	      1.70161112	     35.58866873	     -3.79535760	      1.53562555	    -44.14008007	      5.10840426	      4.46061112	      1.63465773	     34.29204034	     -7.10616845	      0.09076360	    -41.47743799	     13.47626582	      5.10891601	      6.30031526	    -23.93435954	      0.74417696	     -1.22176427	      4.45169130	      4.78462024	     -2.94508456	     35.25020254	    -43.76207897	    -17.59959133	     63.35389311	    129.05694191	     -3.23324906	     14.11403664	    -19.69240423	     17.47252662	    -38.66740282	    -33.12745781	     71.06265053	    120.56594912	     -4.40819366	      5.65396213	      5.84781696
      0.03250000	      1.10635833	    -14.04700870	     93.27381692	     -0.00338689	      2.03087143	      1.70294823	     35.80639824	     -3.79466542	      1.50803721	    -44.31239223	      5.05185176	      4.47348248	      1.64097084	     34.43578343	     -7.13497695	      0.05537775	    -41.51422435	     13.50229439	      5.12386390	      6.31453981	    -24.13035908	      0.74087478	     -1.20473915	      4.40772904	      4.74274420	     -2.89464655	     35.63511167	    -43.89176553	    -17.59110178	     63.58113665	    129.06489910	     -3.23801973	     13.99188496	    -19.72409041	     17.93542142	    -38.89698666	    -33.01586164	     71.26565978	    120.59062306	     -4.45429138	      5.67725556	      5.86014328
